<svg xmlns="http://www.w3.org/2000/svg" viewBox="0 0 600 600">
  <path fill="none" stroke="#000000" stroke-width="12" stroke-linecap="round" stroke-linejoin="round" d="M300 50L150 150L100 300L150 450L300 550L450 450L500 300L450 150L300 50M300 50L200 220M300 50L400 220M150 150L100 300M150 150L200 220M450 150L500 300M450 150L400 220M100 300L150 450M500 300L450 450M150 450L300 550M450 450L300 550M200 220L100 300M200 220L150 450M200 220L300 400M200 220L400 220M400 220L500 300M400 220L450 450M400 220L300 400M300 400L150 450M300 400L450 450M300 400L300 550"/>
</svg>
